<!-- icon666.com - MILLIONS vector ICONS FREE --><svg id="Layer_1" enable-background="new 0 0 512 512" viewBox="0 0 512 512" xmlns="http://www.w3.org/2000/svg"><g clip-rule="evenodd" fill-rule="evenodd"><path d="m269.548 245.77c-4.42 0-8.461-2.949-9.646-7.408l-8.162-30.443-43.828 11.742 42.916 160.18c1.43 5.34-1.738 10.824-7.066 12.252-.873.229-1.746.34-2.605.34-4.408 0-8.449-2.939-9.648-7.408l-45.51-169.845c-.691-2.559-.334-5.287.998-7.59 1.332-2.299 3.508-3.969 6.068-4.656l207.293-55.543c5.342-1.43 10.818 1.74 12.254 7.07l45.508 169.84c1.43 5.342-1.744 10.82-7.074 12.25-5.342 1.432-10.816-1.738-12.246-7.07l-42.922-160.18-43.834 11.744 8.154 30.438c.689 2.561.326 5.291-1 7.59-1.32 2.291-3.506 3.971-6.074 4.658l-80.982 21.703c-.868.226-1.733.336-2.594.336zm1.51-43.028 5.57 20.781 61.67-16.523-5.572-20.779z" fill="#a35623" style="fill: rgb(204, 25, 25);"></path><path d="m190.716 409.201c-3.494 0-7.008.459-10.43 1.379-21.41 5.742-34.158 27.82-28.43 49.232 4.701 17.549 20.66 29.809 38.799 29.809 3.502 0 7.014-.471 10.43-1.379 21.416-5.738 34.166-27.828 28.43-49.24-4.705-17.549-20.659-29.801-38.799-29.801zm-.018 35.393c2.168 0 4.082 1.469 4.639 3.568.691 2.568-.842 5.209-3.396 5.9-2.58.688-5.234-.902-5.9-3.41-.453-1.672.109-3 .479-3.652.369-.639 1.248-1.789 2.92-2.238.416-.11.84-.168 1.258-.168zm-.017 29.636c-11.205 0-21.064-7.57-23.961-18.398-1.713-6.402-.83-13.09 2.477-18.83 3.314-5.74 8.662-9.842 15.07-11.561 2.102-.559 4.264-.852 6.432-.852 11.199 0 21.059 7.572 23.959 18.4 3.537 13.211-4.33 26.85-17.551 30.393-2.102.559-4.258.848-6.426.848zm46.224-63.375c-3.809-4.559-8.264-8.52-13.203-11.768l257.996-69.127c1.891-.51 3.871-.242 5.59.75 1.732 1 2.951 2.58 3.459 4.469 1.055 3.941-1.289 8.004-5.232 9.063zm-54.547-21.07-71.758-267.832c-6.021-22.473-29.193-35.842-51.65-29.832l-35.705 9.57 3.822 14.279 35.697-9.561c14.59-3.918 29.641 4.781 33.555 19.363l71.762 267.842c2.266-.916 4.609-1.705 7.027-2.354 2.393-.639 4.813-1.131 7.25-1.475zm-31.996 14.942-73.363-273.776c-1.043-3.871-5.18-6.26-9.049-5.232l-45.365 12.162c-5.328 1.432-10.816-1.74-12.246-7.068l-9-33.602c-.689-2.559-.332-5.289 1-7.59 1.32-2.299 3.506-3.969 6.068-4.66l45.363-12.15c33.105-8.879 67.271 10.85 76.15 43.959l71.68 267.531 274.92-73.658c7.049-1.891 14.426-.912 20.768 2.748 6.348 3.67 10.891 9.57 12.779 16.621 3.912 14.59-4.779 29.639-19.369 33.541l-243.455 65.24c.6 1.645 1.133 3.324 1.592 5.039 8.582 32.059-10.508 65.129-42.564 73.721-5.113 1.369-10.363 2.068-15.615 2.068-27.176 0-51.08-18.352-58.119-44.631-6.028-22.537 1.614-45.58 17.825-60.263z" fill="#4d5c7d" style="fill: rgb(38, 56, 94);"></path><path d="m237.128 78.742c-1.738 0-3.471-.449-5.002-1.34-2.297-1.32-3.98-3.512-4.658-6.07l-5.105-19.051-25.904 6.939 27.412 102.291 129.096-34.602-27.4-102.277-25.893 6.938 5.096 19.051c1.428 5.33-1.732 10.809-7.068 12.242l-57.994 15.537c-.848.229-1.721.342-2.58.342zm4.555-31.637 38.67-10.359 2.514 9.385-38.67 10.361zm-24.887 136.647c-4.422 0-8.455-2.939-9.66-7.408l-32.578-121.602c-.691-2.57-.328-5.301 1-7.592 1.32-2.299 3.512-3.979 6.068-4.658l148.422-39.77c5.342-1.432 10.816 1.738 12.252 7.068l32.578 121.61c.691 2.561.328 5.291-.998 7.58-1.332 2.301-3.514 3.98-6.076 4.66l-148.416 39.77c-.871.231-1.739.342-2.592.342z" fill="#a35623" style="fill: rgb(204, 25, 25);"></path></g></svg>